<svg width="64" height="64" viewBox="0 0 64 64" xmlns="http://www.w3.org/2000/svg">
  <defs>
    <linearGradient id="offrirGrad" x1="0%" y1="0%" x2="100%" y2="100%">
      <stop offset="0%" style="stop-color:#fefce8;stop-opacity:1" />
      <stop offset="100%" style="stop-color:#fde047;stop-opacity:1" />
    </linearGradient>
  </defs>
  <circle cx="32" cy="32" r="30" fill="url(#offrirGrad)" stroke="#eab308" stroke-width="2"/>
  <!-- Cadeau -->
  <rect x="20" y="20" width="24" height="16" rx="2" fill="#eab308"/>
  <rect x="24" y="16" width="16" height="4" rx="2" fill="#eab308"/>
  <rect x="28" y="12" width="8" height="4" rx="1" fill="#eab308"/>
  <!-- Ruban -->
  <rect x="30" y="20" width="4" height="16" fill="white"/>
  <rect x="20" y="26" width="24" height="4" fill="white"/>
  <!-- Cœur -->
  <path d="M32 24c-1-1-2-1-3 0-1 1-1 2 0 3l3 3 3-3c1-1 1-2 0-3-1-1-2-1-3 0z" fill="white"/>
</svg>