<svg width="64" height="64" viewBox="0 0 64 64" xmlns="http://www.w3.org/2000/svg">
  <defs>
    <linearGradient id="mariageGrad" x1="0%" y1="0%" x2="100%" y2="100%">
      <stop offset="0%" style="stop-color:#fce7f3;stop-opacity:1" />
      <stop offset="100%" style="stop-color:#f9a8d4;stop-opacity:1" />
    </linearGradient>
  </defs>
  <circle cx="32" cy="32" r="30" fill="url(#mariageGrad)" stroke="#ec4899" stroke-width="2"/>
  <!-- Marié -->
  <circle cx="24" cy="28" r="3" fill="#8b5cf6"/>
  <rect x="20" y="32" width="8" height="12" rx="2" fill="#1e40af"/>
  <rect x="19" y="31" width="10" height="3" rx="1" fill="#ffffff"/>
  <!-- Mariée -->
  <circle cx="40" cy="28" r="3" fill="#fbbf24"/>
  <path d="M36 32c0-2 2-4 4-4s4 2 4 4v8c0 2-2 4-4 4s-4-2-4-4v-8z" fill="#ffffff"/>
  <rect x="35" y="31" width="10" height="3" rx="1" fill="#ffffff"/>
  <!-- Arche en cœur -->
  <path d="M32 20c-8 0-12 6-12 12 0 4 2 6 4 8l8-8 8 8c2-2 4-4 4-8 0-6-4-12-12-12z" fill="#fce7f3" stroke="#ec4899" stroke-width="1"/>
  <!-- Fleurs sur l'arche -->
  <circle cx="28" cy="24" r="2" fill="#f9a8d4"/>
  <circle cx="36" cy="24" r="2" fill="#f9a8d4"/>
  <circle cx="32" cy="20" r="1.5" fill="#f9a8d4"/>
</svg>