<svg width="64" height="64" viewBox="0 0 64 64" xmlns="http://www.w3.org/2000/svg">
  <defs>
    <linearGradient id="plaisirGrad" x1="0%" y1="0%" x2="100%" y2="100%">
      <stop offset="0%" style="stop-color:#fef2f2;stop-opacity:1" />
      <stop offset="100%" style="stop-color:#fca5a5;stop-opacity:1" />
    </linearGradient>
  </defs>
  <circle cx="32" cy="32" r="30" fill="url(#plaisirGrad)" stroke="#ef4444" stroke-width="2"/>
  <!-- Cœur principal -->
  <path d="M32 20c-3.5 0-6.5 2.5-6.5 6.5 0 2.5 1.5 4.5 3.5 5.5l3 3 3-3c2-1 3.5-3 3.5-5.5 0-4-3-6.5-6.5-6.5z" fill="#ef4444"/>
  <!-- Petits cœurs -->
  <path d="M26 26c-1 0-2 1-2 2 0 1 1 2 2 2s2-1 2-2c0-1-1-2-2-2z" fill="white"/>
  <path d="M38 26c-1 0-2 1-2 2 0 1 1 2 2 2s2-1 2-2c0-1-1-2-2-2z" fill="white"/>
  <!-- Sourire -->
  <path d="M28 40c2-2 4-2 6 0s4 2 6 0" fill="#ef4444"/>
</svg>